<?xml version="1.0" encoding="utf-8"?>
<!-- Generator: Adobe Illustrator 26.0.0, SVG Export Plug-In . SVG Version: 6.00 Build 0)  -->
<svg version="1.1" id="Layer_1" xmlns="http://www.w3.org/2000/svg" xmlns:xlink="http://www.w3.org/1999/xlink" x="0px" y="0px"
	 viewBox="0 0 2500 544" style="enable-background:new 0 0 2500 544;" xml:space="preserve">
<g>
	<path d="M202.07,489.29c-23.81,0-46.07-4.48-66.79-13.45c-20.72-8.97-38.73-21.17-54.03-36.64c-15.3-15.45-27.44-33.47-36.41-54.03
		c-8.97-20.56-13.45-42.59-13.45-66.09c0-23.49,4.48-45.6,13.45-66.32c8.97-20.71,21.11-38.73,36.41-54.03
		c15.3-15.31,33.31-27.44,54.03-36.41c20.71-8.96,42.97-13.45,66.79-13.45c23.49,0,45.53,4.49,66.09,13.45
		c20.56,8.97,38.5,21.1,53.8,36.41c15.3,15.3,27.44,33.32,36.41,54.03c8.96,20.72,13.45,42.83,13.45,66.32v170.21h-75.6V319.38
		c0-12.96-2.48-25.23-7.42-36.81c-4.95-11.57-11.75-21.68-20.4-30.33c-8.66-8.64-18.64-15.43-29.92-20.37
		c-11.29-4.93-23.42-7.41-36.41-7.41c-12.98,0-25.27,2.47-36.87,7.41c-11.6,4.94-21.72,11.72-30.38,20.36
		c-8.66,8.64-15.46,18.73-20.4,30.3c-4.95,11.57-7.42,23.83-7.42,36.79c0,12.96,2.47,25.14,7.42,36.55
		c4.94,11.41,11.75,21.36,20.4,29.84c8.66,8.48,18.79,15.27,30.38,20.36c11.6,5.09,23.89,7.63,36.87,7.63
		c10.2,0,20.02-1.62,29.45-4.87c9.43-3.25,18.01-7.81,25.74-13.69v84.42c-8.66,3.09-17.62,5.49-26.9,7.19
		C221.08,488.44,211.65,489.29,202.07,489.29z"/>
	<path d="M458.08,241.16c8.04-18.24,18.86-34.24,32.47-48c13.6-13.76,29.6-24.58,48.01-32.47c18.39-7.88,37.95-11.83,58.67-11.83
		c21.02,0,40.74,3.94,59.13,11.83c18.39,7.88,34.47,18.71,48.24,32.47c13.75,13.76,24.58,29.76,32.47,48
		c7.88,18.25,11.83,37.73,11.83,58.44v189.69h-75.6V299.93c0-10.19-2.02-19.91-6.05-29.17c-4.03-9.26-9.46-17.28-16.28-24.07
		c-6.83-6.79-14.89-12.19-24.19-16.21c-9.31-4.01-19.23-6.02-29.77-6.02c-10.55,0-20.4,2.01-29.55,6.02
		c-9.15,4.02-17.13,9.41-23.96,16.21c-6.83,6.79-12.17,14.81-16.05,24.07c-3.88,9.26-5.82,18.98-5.82,29.17v189.36h-75.59V299.6
		C446.02,278.89,450.03,259.41,458.08,241.16z"/>
	<path d="M975.21,489.29c-23.81,0-46.07-4.48-66.79-13.45c-20.72-8.97-38.73-21.17-54.03-36.64c-15.3-15.45-27.44-33.47-36.41-54.03
		c-8.97-20.56-13.45-42.59-13.45-66.09c0-23.49,4.48-45.6,13.45-66.32c8.97-20.71,21.11-38.73,36.41-54.03
		c15.3-15.31,33.31-27.44,54.03-36.41c20.71-8.96,42.97-13.45,66.79-13.45c23.49,0,45.53,4.49,66.09,13.45
		c20.56,8.97,38.5,21.1,53.8,36.41c15.3,15.3,27.44,33.32,36.41,54.03c8.96,20.72,13.45,42.83,13.45,66.32v170.21h-75.6V319.38
		c0-12.96-2.48-25.23-7.42-36.81c-4.95-11.57-11.75-21.68-20.4-30.33c-8.66-8.64-18.64-15.43-29.92-20.37
		c-11.29-4.93-23.42-7.41-36.41-7.41c-12.98,0-25.27,2.47-36.87,7.41c-11.6,4.94-21.72,11.72-30.38,20.36
		c-8.66,8.64-15.46,18.73-20.4,30.3c-4.95,11.57-7.42,23.83-7.42,36.79c0,12.96,2.47,25.14,7.42,36.55
		c4.94,11.41,11.75,21.36,20.4,29.84c8.66,8.48,18.79,15.27,30.38,20.36c11.6,5.09,23.89,7.63,36.87,7.63
		c10.2,0,20.02-1.62,29.45-4.87c9.43-3.25,18.01-7.81,25.74-13.69v84.42c-8.66,3.09-17.62,5.49-26.9,7.19
		C994.22,488.44,984.79,489.29,975.21,489.29z"/>
	<path d="M1294.76,54.25v435.04h-75.59V54.25H1294.76z"/>
	<path d="M1368.97,148.86h75.59v340.42h-75.59V148.86z M1444.56,53.79v75.6h-75.13v-75.6H1444.56z"/>
	<path d="M1804.47,413.69v75.59h-317.7l166.04-264.83h-159.55v-75.6h296.37l-166.04,264.83H1804.47z"/>
	<path d="M1846.21,452.19c0-10.21,3.68-19.02,11.06-26.44c7.38-7.42,16.29-11.13,26.74-11.13c10.45,0,19.36,3.71,26.73,11.13
		c7.37,7.42,11.06,16.23,11.06,26.44c0,10.51-3.69,19.48-11.06,26.9c-7.38,7.42-16.28,11.13-26.73,11.13
		c-10.45,0-19.36-3.71-26.74-11.13C1849.88,471.66,1846.21,462.7,1846.21,452.19z"/>
	<path d="M1996.47,148.86h75.59v340.42h-75.59V148.86z M2072.07,53.79v75.6h-75.13v-75.6H2072.07z"/>
	<path d="M2298.4,489.29c-23.51,0-45.53-4.48-66.1-13.45c-20.57-8.97-38.57-21.1-54.03-36.41c-15.46-15.3-27.67-33.31-36.64-54.03
		c-8.97-20.71-13.45-42.83-13.45-66.33c0-23.49,4.48-45.6,13.45-66.32c8.97-20.71,21.18-38.73,36.64-54.03
		c15.46-15.31,33.47-27.44,54.03-36.41c20.56-8.96,42.59-13.45,66.1-13.45c23.49,0,45.6,4.49,66.32,13.45
		c20.71,8.97,38.73,21.1,54.03,36.41c15.3,15.3,27.44,33.32,36.41,54.03c8.96,20.72,13.45,42.83,13.45,66.32
		c0,23.5-4.49,45.61-13.45,66.33c-8.97,20.72-21.11,38.72-36.41,54.03c-15.3,15.31-33.32,27.44-54.03,36.41
		C2344,484.81,2321.89,489.29,2298.4,489.29z M2203.78,319.08c0,12.99,2.48,25.2,7.43,36.64c4.96,11.44,11.7,21.49,20.23,30.15
		c8.52,8.66,18.52,15.47,29.99,20.41c11.46,4.95,23.71,7.42,36.73,7.42c13.02,0,25.26-2.47,36.73-7.42
		c11.46-4.94,21.54-11.75,30.22-20.41c8.68-8.65,15.5-18.7,20.46-30.15c4.96-11.44,7.44-23.65,7.44-36.64
		c0-12.99-2.48-25.2-7.44-36.64c-4.96-11.44-11.78-21.49-20.46-30.15c-8.68-8.65-18.76-15.46-30.22-20.41
		c-11.47-4.94-23.71-7.42-36.73-7.42c-13.02,0-25.27,2.48-36.73,7.42c-11.47,4.95-21.46,11.76-29.99,20.41
		c-8.52,8.66-15.27,18.71-20.23,30.15C2206.26,293.88,2203.78,306.09,2203.78,319.08z M2246.92,319.08c0-7.11,1.39-13.83,4.17-20.17
		c2.78-6.33,6.49-11.83,11.13-16.46c4.64-4.64,10.04-8.35,16.24-11.13c6.18-2.78,12.83-4.17,19.94-4.17
		c7.11,0,13.83,1.39,20.17,4.17c6.33,2.78,11.83,6.49,16.46,11.13c4.64,4.64,8.35,10.13,11.14,16.46
		c2.78,6.34,4.17,13.07,4.17,20.17c0,7.12-1.39,13.76-4.17,19.94c-2.78,6.19-6.49,11.6-11.14,16.23
		c-4.63,4.64-10.13,8.35-16.46,11.14c-6.34,2.78-13.07,4.17-20.17,4.17c-7.12,0-13.76-1.39-19.94-4.17
		c-6.19-2.79-11.6-6.49-16.24-11.14c-4.63-4.63-8.35-10.04-11.13-16.23C2248.3,332.84,2246.92,326.19,2246.92,319.08z"/>
</g>
</svg>
